<?xml version="1.0" encoding="utf-8"?>
<!-- Generator: Adobe Illustrator 16.0.0, SVG Export Plug-In . SVG Version: 6.00 Build 0)  -->
<!DOCTYPE svg PUBLIC "-//W3C//DTD SVG 1.1//EN" "http://www.w3.org/Graphics/SVG/1.1/DTD/svg11.dtd">
<svg version="1.1" id="Layer_1" xmlns="http://www.w3.org/2000/svg" xmlns:xlink="http://www.w3.org/1999/xlink" x="0px" y="0px"
	 width="366px" height="115px" viewBox="0 0 366 115" enable-background="new 0 0 366 115" xml:space="preserve">
<g>
	<path fill="#23546E" d="M82.708,87.652c0.305,0.768,0.613,1.497,0.92,2.185c0.304,0.691,0.575,1.345,0.805,1.958
		c0.305,0.689,0.574,1.38,0.805,2.068c-2.301,0.613-4.486,0.807-6.556,0.578c-1.766-0.155-3.549-0.693-5.35-1.613
		c-1.801-0.919-3.203-2.604-4.197-5.061c-0.46-1.072-1.306-3.18-2.531-6.324c-1.226-3.142-2.686-6.824-4.371-11.04H29.571
		c-1.688,4.216-3.145,7.898-4.37,11.04c-1.229,3.145-2.071,5.252-2.531,6.324c-1.075,2.457-2.493,4.142-4.256,5.061
		c-1.765,0.92-3.527,1.458-5.291,1.613c-2.071,0.229-4.256,0.035-6.557-0.578c0.231-0.688,0.499-1.379,0.806-2.068
		c0.23-0.613,0.478-1.267,0.749-1.958c0.266-0.688,0.593-1.417,0.977-2.185c0.535-1.379,1.475-3.755,2.818-7.131
		c1.34-3.373,2.894-7.243,4.658-11.616c1.762-4.37,3.623-8.972,5.578-13.8c1.954-4.833,3.795-9.432,5.521-13.805
		c1.724-4.37,3.278-8.222,4.657-11.557c1.382-3.336,2.338-5.693,2.876-7.073c0.843-2.146,1.743-3.854,2.702-5.119
		c0.958-1.265,1.899-2.242,2.818-2.932c0.919-0.691,1.821-1.13,2.703-1.323c0.882-0.191,1.705-0.288,2.472-0.288
		c0.767,0,1.591,0.097,2.473,0.288c0.881,0.193,1.783,0.632,2.704,1.323c0.919,0.69,1.857,1.667,2.818,2.932
		c0.957,1.265,1.857,2.973,2.702,5.119c0.535,1.38,1.476,3.737,2.817,7.073c1.341,3.335,2.893,7.188,4.659,11.557
		c1.763,4.373,3.623,8.972,5.578,13.805c1.954,4.828,3.813,9.43,5.578,13.8c1.764,4.373,3.315,8.243,4.658,11.616
		C81.23,83.897,82.171,86.273,82.708,87.652z M57.865,59.016c-1.535-3.832-3.029-7.571-4.486-11.214
		c-1.457-3.642-2.722-6.92-3.795-9.833c-1.38-3.375-2.607-6.595-3.681-9.662c-1.227,3.067-2.493,6.288-3.794,9.662
		c-1.151,2.913-2.415,6.191-3.796,9.833c-1.379,3.643-2.837,7.382-4.371,11.214H57.865z"/>
	<path fill="#23546E" d="M197.595,37.875c1.036-2.552,2.493-4.287,4.37-5.208c1.874-0.915,3.729-1.454,5.566-1.616
		c2.155-0.159,4.428,0.042,6.823,0.599c-3.113,7.902-5.985,15.204-8.618,21.908c-1.12,2.872-2.275,5.766-3.471,8.678
		c-1.199,2.915-2.336,5.668-3.413,8.258c-1.076,2.596-2.078,4.891-2.993,6.885c-0.919,1.996-1.657,3.514-2.215,4.55
		c-1.359,2.554-2.993,4.289-4.907,5.207c-1.916,0.917-3.71,1.455-5.386,1.614c-2.077,0.16-4.111-0.077-6.105-0.718
		c-1.518-4.786-2.993-9.374-4.43-13.767c-1.197-3.828-2.395-7.739-3.593-11.731c-1.195-3.989-2.075-7.34-2.63-10.053
		c-0.642,2.872-1.279,5.745-1.917,8.618c-0.64,2.873-1.315,5.586-2.035,8.14c-0.719,2.554-1.457,4.909-2.216,7.062
		c-0.759,2.155-1.536,3.95-2.333,5.386c-1.278,2.315-2.833,3.952-4.669,4.909s-3.631,1.515-5.386,1.677
		c-2.078,0.238-4.19,0.078-6.344-0.479c-0.562-1.438-1.399-3.453-2.513-6.047c-1.121-2.593-2.336-5.488-3.652-8.679
		c-1.317-3.191-2.693-6.543-4.13-10.054c-1.437-3.514-2.813-6.886-4.129-10.116c-1.316-3.231-2.514-6.165-3.591-8.798
		c-1.077-2.632-1.896-4.669-2.456-6.105c-0.798-1.596-1.434-2.994-1.913-4.191c-0.322-0.717-0.6-1.436-0.839-2.155
		c2.395-0.557,4.668-0.757,6.823-0.599c1.834,0.162,3.691,0.701,5.566,1.616c1.874,0.92,3.371,2.655,4.489,5.208
		c0.318,0.881,0.777,2.057,1.376,3.531c0.599,1.479,1.237,3.095,1.915,4.849c0.677,1.756,1.396,3.592,2.155,5.508
		c0.758,1.916,1.496,3.832,2.214,5.745c1.754,4.391,3.63,9.14,5.626,14.244c1.198-5.104,2.354-9.854,3.472-14.244
		c0.957-3.829,1.953-7.602,2.993-11.313c1.035-3.708,1.914-6.483,2.632-8.319c1.038-2.552,2.434-4.287,4.19-5.208
		c1.756-0.915,3.512-1.454,5.269-1.616c2.073-0.159,4.189,0.042,6.344,0.599l10.773,40.102c1.915-5.104,3.75-9.854,5.507-14.244
		c1.514-3.829,2.992-7.602,4.429-11.313C195.681,42.486,196.796,39.711,197.595,37.875z"/>
	<path fill="#23546E" d="M222.229,56.904c2.364-1.371,5.015-2.363,7.951-2.985c2.934-0.621,5.989-0.872,9.153-0.756
		c4.45,0.165,8.661,0.962,12.638,2.395c-0.158-2.661-0.631-5.036-1.408-7.124c-1.016-2.69-2.615-4.677-4.791-5.959
		c-0.844-0.46-1.753-0.812-2.729-1.065c-0.976-0.246-2.104-0.397-3.388-0.445l-1.412-0.053c-1.202,0.043-2.407,0.193-3.615,0.446
		c-1.211,0.255-2.422,0.576-3.634,0.958c-1.216,0.384-2.426,0.704-3.636,0.958c-1.209,0.258-2.37,0.364-3.481,0.322
		c-1.202-0.044-2.347-0.343-3.437-0.896c-1.007-0.635-1.868-1.655-2.586-3.055l-0.239-0.52l0.271-0.377
		c2.667-2.641,5.766-4.736,9.291-6.275c3.528-1.542,7.347-2.365,11.467-2.473c0.433-0.067,0.795-0.096,1.094-0.085
		c0.301,0.011,0.663,0.024,1.092,0.04c3.937,0.146,7.505,0.983,10.705,2.513c3.2,1.534,5.95,3.585,8.258,6.154
		c4.682,5.485,6.948,12.551,6.801,21.201l-0.037,1.026c-0.328,8.902-2.863,16.048-7.602,21.442c-2.327,2.66-5.083,4.783-8.27,6.38
		c-3.188,1.595-6.71,2.535-10.581,2.823c-0.514,0.064-1.029,0.089-1.545,0.07c-0.511-0.019-1.067-0.039-1.666-0.061
		c-1.796-0.066-3.676-0.287-5.631-0.66c-1.958-0.371-3.864-1.017-5.713-1.941c-1.943-0.843-3.703-1.917-5.28-3.218
		c-1.581-1.299-2.892-2.955-3.93-4.963c-1.535-2.541-2.281-5.613-2.233-9.209l0.028-0.77c0.123-3.336,0.911-6.092,2.362-8.27
		C217.774,60.295,219.686,58.438,222.229,56.904z M248.574,64.043c-1.107-0.212-2.363-0.429-3.771-0.654
		c-1.405-0.221-2.835-0.359-4.288-0.413c-1.201-0.044-2.358-0.022-3.473,0.064c-1.118,0.085-2.154,0.286-3.106,0.594
		c-2.166,0.604-3.833,1.614-4.997,3.029c-0.448,0.494-0.812,1.062-1.092,1.691c-0.28,0.636-0.478,1.334-0.59,2.102
		c-0.097,0.254-0.153,0.637-0.173,1.15c-0.031,0.856,0.065,1.78,0.285,2.773c0.219,0.994,0.701,1.936,1.438,2.815
		c0.651,0.883,1.631,1.646,2.938,2.293c1.302,0.651,3.067,1.016,5.292,1.098c0.686,0.026,1.2,0.002,1.544-0.072
		c2.398,0.004,4.522-0.605,6.365-1.821c0.873-0.482,1.626-1.076,2.253-1.781c0.624-0.705,1.165-1.477,1.626-2.319
		c1.002-1.59,1.706-3.234,2.11-4.933c0.403-1.698,0.635-3.276,0.689-4.734c-0.087-0.004-0.151-0.023-0.19-0.068
		c-0.043-0.045-0.106-0.071-0.19-0.074c-0.341-0.094-0.723-0.195-1.146-0.299C249.674,64.385,249.164,64.235,248.574,64.043z"/>
	<g>
		<path fill="#58B947" d="M145.012,99.354v1.239h-2.208v6.463h-1.427v-6.463h-2.208v-1.239H145.012z"/>
		<path fill="#58B947" d="M145.82,107.045v-7.691h3.5c1.573,0,2.359,0.688,2.359,2.063c0,0.93-0.612,1.7-1.836,2.311l2.44,3.328
			h-1.799l-2.343-3.355v-0.651c1.364-0.233,2.046-0.763,2.046-1.589c0-0.567-0.32-0.852-0.958-0.852h-1.955v6.437H145.82z"/>
		<path fill="#58B947" d="M153.748,107.056h-1.465l3.269-7.702h1.535l3.339,7.702h-1.535l-0.878-2.101h-2.559l0.49-1.238h1.551
			l-1.212-2.893L153.748,107.056z"/>
		<path fill="#58B947" d="M167.896,99.354l-3.377,7.702h-1.535l-3.231-7.702h1.696l2.386,5.897l2.38-5.897H167.896z"/>
		<path fill="#58B947" d="M173.977,99.354v1.229h-3.856v1.938h3.673v1.276h-3.689v2.021h3.948v1.238h-5.348v-7.702H173.977z"/>
		<path fill="#58B947" d="M176.799,99.354v6.464h3.059v1.238h-4.486v-7.702H176.799z"/>
		<path fill="#58B947" d="M181.069,106.732v-1.293c0.772,0.288,1.645,0.432,2.618,0.432c1.181,0,1.771-0.396,1.771-1.186
			c0-0.574-0.362-0.861-1.088-0.861h-1.206c-1.576,0-2.364-0.718-2.364-2.154c0-1.58,1.122-2.37,3.366-2.37
			c0.861,0,1.678,0.126,2.45,0.377v1.293c-0.772-0.287-1.589-0.431-2.45-0.431c-1.293,0-1.939,0.377-1.939,1.131
			c0,0.574,0.312,0.861,0.938,0.861h1.206c1.677,0,2.516,0.719,2.516,2.154c0,1.616-1.066,2.424-3.199,2.424
			C182.714,107.109,181.842,106.983,181.069,106.732z"/>
		<path fill="#58B947" d="M190.253,101.481c0-1.418,0.915-2.128,2.746-2.128c0.664,0,1.311,0.09,1.939,0.27v1.131
			c-0.629-0.179-1.252-0.269-1.869-0.269c-0.927,0-1.39,0.323-1.39,0.969c0,0.754,0.368,1.131,1.104,1.131h1.82v-0.765h0.77
			l0.55,0.765h0.98v1.132h-0.873v0.7c0,1.77-0.983,2.655-2.951,2.655c-1.885,0-2.827-0.749-2.827-2.246
			c0-0.815,0.328-1.377,0.985-1.686C190.581,102.835,190.253,102.282,190.253,101.481z M192.795,103.717
			c-0.743,0-1.115,0.36-1.115,1.082c0,0.751,0.469,1.126,1.405,1.126c1.013,0,1.52-0.507,1.52-1.519v-0.689H192.795z"/>
		<path fill="#58B947" d="M200.135,107.056v-7.702h1.428v3.178h3.797v-3.178h1.427v7.702h-1.427v-3.285h-3.797v3.285H200.135z"/>
		<path fill="#58B947" d="M208.134,103.216c0-2.61,1.288-3.916,3.866-3.916c2.539,0,3.808,1.306,3.808,3.916
			c0,2.596-1.269,3.894-3.808,3.894C209.537,107.109,208.248,105.812,208.134,103.216z M212,105.871
			c1.552,0,2.327-0.896,2.327-2.688c0-1.764-0.775-2.645-2.327-2.645c-1.591,0-2.386,0.881-2.386,2.645
			C209.614,104.975,210.409,105.871,212,105.871z"/>
		<path fill="#58B947" d="M218.582,99.354v6.464h3.059v1.238h-4.486v-7.702H218.582z"/>
		<path fill="#58B947" d="M224.415,99.354v7.702h-1.428v-7.702H224.415z"/>
		<path fill="#58B947" d="M226.03,107.056v-7.702h3.017c2.549,0,3.823,1.214,3.823,3.642c0,2.707-1.274,4.061-3.823,4.061H226.03z
			 M229.047,105.817c1.598,0,2.396-0.941,2.396-2.822c0-1.602-0.799-2.402-2.396-2.402h-1.589v5.225H229.047z"/>
		<path fill="#58B947" d="M234.874,107.056h-1.465l3.27-7.702h1.534l3.34,7.702h-1.535l-0.878-2.101h-2.559l0.49-1.238h1.551
			l-1.211-2.893L234.874,107.056z"/>
		<path fill="#58B947" d="M240.879,99.354h1.535l2.165,3.711l2.035-3.711h1.481l-2.833,5.009v2.693h-1.427v-2.693L240.879,99.354z"
			/>
		<path fill="#58B947" d="M248.419,106.732v-1.293c0.772,0.288,1.645,0.432,2.618,0.432c1.181,0,1.771-0.396,1.771-1.186
			c0-0.574-0.362-0.861-1.088-0.861h-1.206c-1.576,0-2.364-0.718-2.364-2.154c0-1.58,1.122-2.37,3.366-2.37
			c0.861,0,1.678,0.126,2.45,0.377v1.293c-0.772-0.287-1.589-0.431-2.45-0.431c-1.293,0-1.939,0.377-1.939,1.131
			c0,0.574,0.312,0.861,0.938,0.861h1.206c1.677,0,2.516,0.719,2.516,2.154c0,1.616-1.066,2.424-3.199,2.424
			C250.063,107.109,249.191,106.983,248.419,106.732z"/>
	</g>
	<g>
		<circle fill="#23546E" cx="317.389" cy="62.513" r="42.997"/>
		<g>
			<path fill="#58B947" stroke="#FFFFFF" stroke-width="0.7219" stroke-miterlimit="10" d="M353.858,25.336
				c1.83,0.449,3.235,1.437,4.211,2.968c0.974,1.53,1.241,3.169,0.802,4.912c-0.44,1.744-1.442,3.074-3.006,3.992
				c-1.57,0.921-3.251,1.161-5.037,0.723c-1.789-0.435-3.168-1.42-4.146-2.952c-0.972-1.531-1.264-3.173-0.87-4.926
				c0.396-1.756,1.378-3.092,2.943-4.011C350.323,25.125,352.024,24.889,353.858,25.336z"/>
			<g>
				<path fill="#58B947" stroke="#FFFFFF" stroke-width="0.7219" stroke-miterlimit="10" d="M353.32,47.358
					c0.225,0.518,0.307,1.257,0.245,2.226c0.005,4.299-0.748,8.5-2.255,12.593c-1.513,4.095-3.549,7.778-6.116,11.05
					c-2.565,3.268-5.579,6.273-9.037,9.022c-3.458,2.743-7.173,4.937-11.151,6.58c-3.975,1.642-8.08,2.863-12.321,3.665
					c-4.06,0.261-7.999-0.634-11.817-2.687c-3.825-2.055-7.003-4.747-9.544-8.08c-2.535-3.334-4.34-7.212-5.408-11.63
					c-1.067-4.419-1.034-8.67,0.1-12.751c1.143-4.689,3.484-8.541,7.04-11.56c3.543-3.02,7.621-4.818,12.238-5.399
					c4.612-0.583,9.104,0.145,13.476,2.183c4.433,2.012,7.752,4.668,9.963,7.965c2.209,3.294,2.961,6.762,2.262,10.401
					c-0.7,3.643-2.96,6.82-6.776,9.539c-3.791,2.779-7.897,3.396-12.334,1.857c-3.723-1.354-5.97-3.627-6.74-6.815
					c-0.942-3.731,0.802-7.212,5.229-10.445c0.271-0.171,0.561-0.388,0.864-0.645c3.489-1.244,5.92-1.096,7.293,0.446
					c1.134,1.163,1.004,2.526-0.4,4.092c-0.655,0.729-1.578,1.396-2.772,2.002c-0.415,0.168-0.61,0.277-0.585,0.335
					c-1.792,1.783-1.981,3.34-0.564,4.664c1.278,1.172,2.938,1.46,4.966,0.857c2.033-0.602,3.463-2.109,4.285-4.519
					c0.812-6.24-1.098-10.361-5.733-12.36c-3.681-1.569-7.722-1.351-12.127,0.66c-4.976,2.304-8.03,6.037-9.18,11.201
					c0.026,0.057,0.02,0.122-0.013,0.207c-0.252,3.866,0.243,7.216,1.488,10.056c1.243,2.836,2.973,4.924,5.195,6.267
					c2.22,1.34,4.812,2.13,7.77,2.372c2.959,0.244,6.031-0.316,9.229-1.687c3.191-1.361,6.397-3.288,9.622-5.771
					c3.591-3.24,6.854-6.951,9.782-11.137c2.93-4.188,5.004-8.304,6.222-12.351c0.056-0.829,0.627-1.626,1.717-2.393
					c1.09-0.769,2.237-1.207,3.44-1.312C352.078,45.952,352.89,46.385,353.32,47.358z"/>
			</g>
		</g>
	</g>
	<g>
		<path fill="#58B947" d="M115.415,73.634c0,3.196-0.464,6.187-1.391,8.968c-0.928,2.782-2.288,5.196-4.077,7.242
			c-1.855,2.11-4.077,3.772-6.666,4.987c-2.59,1.215-5.515,1.823-8.776,1.823c-1.663,0-3.293-0.32-4.892-0.959
			c-1.535-0.704-2.653-1.694-3.357-2.974c-0.512-0.896-0.768-1.919-0.768-3.069c0-0.64,0.096-1.311,0.288-2.015l0.096-0.576
			l0.576,0.192c0.896,0.32,1.965,0.64,3.213,0.96c1.247,0.319,2.606,0.479,4.076,0.479c0.513,0,1.151-0.064,1.918-0.191
			c0.767-0.13,1.568-0.417,2.398-0.864c0.895-0.448,1.757-1.071,2.589-1.87c0.831-0.801,1.536-1.903,2.11-3.309
			c0.384-0.896,0.639-1.952,0.767-3.165c0.128-1.217,0.192-2.591,0.192-4.126V42.27c0-3.773,1.055-6.522,3.165-8.25
			c2.11-1.727,5.147-2.59,9.112-2.59c-0.065,0.384-0.128,0.96-0.192,1.727c-0.064,0.705-0.112,1.664-0.144,2.877
			c-0.033,1.216-0.048,2.782-0.048,4.7L115.415,73.634z M115.031,13.782c0-1.086-0.256-2.111-0.768-3.069
			c-0.513-0.959-1.28-1.693-2.302-2.206c-0.896-0.512-1.822-0.768-2.782-0.768c-1.088,0-2.143,0.304-3.165,0.911
			c-1.023,0.608-1.822,1.455-2.398,2.541c-0.575,0.96-0.863,2.015-0.863,3.166c0,2.367,0.991,4.158,2.974,5.372
			c0.896,0.448,1.854,0.671,2.877,0.671c2.366,0,4.221-1.118,5.563-3.356C114.743,16.021,115.031,14.933,115.031,13.782z"/>
	</g>
</g>
</svg>
